<svg width="79" height="33" viewBox="0 0 79 33" fill="none" xmlns="http://www.w3.org/2000/svg">
<path d="M6.20652 5.54001C7.48652 5.54001 8.57452 4.48401 8.57452 3.17201C8.57452 1.86001 7.48652 0.836008 6.20652 0.836008C4.89452 0.836008 3.83852 1.86001 3.83852 3.17201C3.83852 4.48401 4.89452 5.54001 6.20652 5.54001ZM0.478516 31.94C1.50252 32.228 2.07852 32.292 2.81452 32.292C6.23852 32.292 8.15852 30.116 8.15852 26.756V8.70801H4.25452V26.308C4.25452 27.908 3.80652 28.676 2.46252 28.676C1.98252 28.676 1.66252 28.644 1.11852 28.484L0.478516 31.94Z" fill="black"/>
<path d="M9.26402 16.58C9.26402 21.508 12.816 24.9 17.712 24.9C22.608 24.9 26.16 21.508 26.16 16.58C26.16 11.652 22.608 8.26001 17.712 8.26001C12.816 8.26001 9.26402 11.652 9.26402 16.58ZM13.168 16.58C13.168 13.7 15.024 11.748 17.712 11.748C20.4 11.748 22.256 13.7 22.256 16.58C22.256 19.46 20.4 21.412 17.712 21.412C15.024 21.412 13.168 19.46 13.168 16.58Z" fill="black"/>
<path d="M30.8705 24.516L31.1265 22.052C32.0545 23.876 34.0705 24.932 36.4385 24.932C40.9825 24.932 43.9585 21.572 43.9585 16.708C43.9585 11.716 41.2065 8.19601 36.6945 8.19601C34.2945 8.19601 32.1825 9.25201 31.1585 11.012V0.708008H27.2545V24.516H30.8705ZM31.1905 16.548C31.1905 13.7 32.9505 11.716 35.6385 11.716C38.3905 11.716 40.0225 13.732 40.0225 16.548C40.0225 19.364 38.3905 21.348 35.6385 21.348C32.9505 21.348 31.1905 19.396 31.1905 16.548Z" fill="black"/>
<path d="M49.003 24.516V0.708008H45.131V24.516H49.003Z" fill="black"/>
<path d="M53.0503 5.54001C54.3303 5.54001 55.3863 4.48401 55.3863 3.17201C55.3863 1.86001 54.3303 0.836008 53.0503 0.836008C51.7063 0.836008 50.6503 1.86001 50.6503 3.17201C50.6503 4.48401 51.7063 5.54001 53.0503 5.54001ZM51.0983 24.516H55.0023V8.70801H51.0983V24.516Z" fill="black"/>
<path d="M55.8198 19.716C55.8198 22.82 58.3158 24.932 62.2518 24.932C66.1558 24.932 68.8758 22.948 68.8758 19.748C68.8758 17.316 67.5318 16.1 64.8758 15.492L62.0278 14.82C60.6838 14.5 59.9798 13.924 59.9798 13.028C59.9798 11.844 60.8758 11.14 62.4118 11.14C63.9158 11.14 64.8118 12.004 64.8438 13.348H68.5558C68.5238 10.276 66.1238 8.22801 62.5718 8.22801C58.9238 8.22801 56.2998 10.084 56.2998 13.188C56.2998 15.716 57.6758 17.06 60.5238 17.7L63.3718 18.372C64.7798 18.692 65.1958 19.268 65.1958 20.068C65.1958 21.22 64.2038 21.956 62.3798 21.956C60.5878 21.956 59.5638 21.092 59.5318 19.716H55.8198Z" fill="black"/>
<path d="M75.2243 24.516V11.972H78.2963V8.70801H75.2243V3.78001H71.3203V8.70801H68.2803V8.93201C68.2803 10.611 69.6413 11.972 71.3203 11.972V24.516H75.2243Z" fill="black"/>
</svg>
